<svg xmlns="http://www.w3.org/2000/svg" width="24" height="24" viewBox="0 0 24 24"><path d="M12 2c5.514 0 10 4.486 10 10s-4.486 10-10 10S2 17.514 2 12 6.486 2 12 2zm0-2C5.373 0 0 5.373 0 12s5.373 12 12 12 12-5.373 12-12S18.627 0 12 0zM6.029 18l.844-3.081a5.946 5.946 0 01-.794-2.973A5.954 5.954 0 0112.025 6a5.907 5.907 0 014.206 1.744 5.908 5.908 0 011.74 4.207 5.954 5.954 0 01-5.946 5.946c-.995 0-1.976-.25-2.844-.724L6.029 18zm3.298-1.903c.838.497 1.638.796 2.696.796a4.95 4.95 0 004.944-4.942 4.941 4.941 0 10-9.884-.004c0 1.112.326 1.946.873 2.817l-.499 1.824 1.87-.491zm5.694-2.732c-.037-.062-.136-.099-.285-.174a24.79 24.79 0 00-1.015-.483c-.136-.05-.235-.074-.334.074a9.044 9.044 0 01-.47.583c-.087.099-.173.112-.322.037-.149-.074-.627-.231-1.195-.737a4.502 4.502 0 01-.827-1.029c-.087-.149-.009-.229.065-.303l.223-.26.149-.248c.05-.099.025-.186-.012-.26l-.458-1.103c-.121-.29-.243-.25-.334-.255L9.92 9.2c-.099 0-.26.037-.396.186s-.52.508-.52 1.24c0 .731.532 1.438.607 1.537.074.099 1.048 1.6 2.538 2.243.354.153.631.245.847.313.356.113.68.097.936.059.285-.043.879-.359 1.003-.706.123-.348.123-.645.086-.707z"/></svg>